<svg id="visual" viewBox="0 0 393 852" width="393" height="852" xmlns="http://www.w3.org/2000/svg"
    xmlns:xlink="http://www.w3.org/1999/xlink" version="1.1">
    <path
        d="M0 35L21.8 40.7C43.7 46.3 87.3 57.7 131 64.8C174.7 72 218.3 75 262 76.5C305.7 78 349.3 78 371.2 78L393 78L393 0L371.2 0C349.3 0 305.7 0 262 0C218.3 0 174.7 0 131 0C87.3 0 43.7 0 21.8 0L0 0Z"
        fill="#ff7187"></path>
    <path
        d="M0 86L21.8 96C43.7 106 87.3 126 131 133.2C174.7 140.3 218.3 134.7 262 136C305.7 137.3 349.3 145.7 371.2 149.8L393 154L393 76L371.2 76C349.3 76 305.7 76 262 74.5C218.3 73 174.7 70 131 62.8C87.3 55.7 43.7 44.3 21.8 38.7L0 33Z"
        fill="#ff5d76"></path>
    <path
        d="M0 180L21.8 188.5C43.7 197 87.3 214 131 216.8C174.7 219.7 218.3 208.3 262 209.8C305.7 211.3 349.3 225.7 371.2 232.8L393 240L393 152L371.2 147.8C349.3 143.7 305.7 135.3 262 134C218.3 132.7 174.7 138.3 131 131.2C87.3 124 43.7 104 21.8 94L0 84Z"
        fill="#ff4563"></path>
    <path
        d="M0 418L21.8 409.5C43.7 401 87.3 384 131 374.2C174.7 364.3 218.3 361.7 262 363.2C305.7 364.7 349.3 370.3 371.2 373.2L393 376L393 238L371.2 230.8C349.3 223.7 305.7 209.3 262 207.8C218.3 206.3 174.7 217.7 131 214.8C87.3 212 43.7 195 21.8 186.5L0 178Z"
        fill="#ff2550"></path>
    <path
        d="M0 495L21.8 486.5C43.7 478 87.3 461 131 446.8C174.7 432.7 218.3 421.3 262 422.8C305.7 424.3 349.3 438.7 371.2 445.8L393 453L393 374L371.2 371.2C349.3 368.3 305.7 362.7 262 361.2C218.3 359.7 174.7 362.3 131 372.2C87.3 382 43.7 399 21.8 407.5L0 416Z"
        fill="#f50044"></path>
    <path
        d="M0 555L21.8 545C43.7 535 87.3 515 131 502.2C174.7 489.3 218.3 483.7 262 483.7C305.7 483.7 349.3 489.3 371.2 492.2L393 495L393 451L371.2 443.8C349.3 436.7 305.7 422.3 262 420.8C218.3 419.3 174.7 430.7 131 444.8C87.3 459 43.7 476 21.8 484.5L0 493Z"
        fill="#e10040"></path>
    <path
        d="M0 708L21.8 699.5C43.7 691 87.3 674 131 655.5C174.7 637 218.3 617 262 602.8C305.7 588.7 349.3 580.3 371.2 576.2L393 572L393 493L371.2 490.2C349.3 487.3 305.7 481.7 262 481.7C218.3 481.7 174.7 487.3 131 500.2C87.3 513 43.7 533 21.8 543L0 553Z"
        fill="#ce003c"></path>
    <path
        d="M0 853L21.8 853C43.7 853 87.3 853 131 853C174.7 853 218.3 853 262 853C305.7 853 349.3 853 371.2 853L393 853L393 570L371.2 574.2C349.3 578.3 305.7 586.7 262 600.8C218.3 615 174.7 635 131 653.5C87.3 672 43.7 689 21.8 697.5L0 706Z"
        fill="#bb0037"></path>
</svg>